<svg xmlns="http://www.w3.org/2000/svg" xmlns:xlink="http://www.w3.org/1999/xlink" viewBox="0 0 401.3 101.4" width="212" height="53"><defs><linearGradient id="Unbenannter_Verlauf" x1="6.8" y1="8.45" x2="89.01" y2="8.45" gradientTransform="translate(0 42)" gradientUnits="userSpaceOnUse"><stop offset="0" stop-color="#39a386"/><stop offset="0.25" stop-color="#379e8a"/><stop offset="0.55" stop-color="#319094"/><stop offset="0.87" stop-color="#2878a5"/><stop offset="1" stop-color="#236cae"/></linearGradient></defs><title>BitcoinClean-Logo</title><g style="isolation:isolate"><g id="Ebene_1" data-name="Ebene 1"><g id="Ebene_1-2" data-name="Ebene 1"><g id="Ebene_1-3" data-name="Ebene 1"><path d="M123,46.5c1.5-3,3.9-4.2,7.2-4.2,7,0,9.8,5.9,9.8,12.2a20.93,20.93,0,0,1-1.8,8.5,8.92,8.92,0,0,1-7.9,4.6,8.18,8.18,0,0,1-7.6-4.6v4h-8.8V63.2h3.2V37.9h-3.2V34.1h9.2V46.5Zm.8,3a13,13,0,0,0-1,5.2c0,3.6.9,8.8,5.5,8.8s5.2-5,5.2-8.5-.8-8.7-5.3-8.7a5.88,5.88,0,0,0-4.4,3.2Z" fill="#020202"/><path d="M143,67.1V63.2h3.2V46.8H143V43h9.2V63.2H155v3.9Zm9.2-33.3v5.5h-6V33.8Z" fill="#020202"/><path d="M173.8,60.7c0,2.9-.9,5.5-3.9,6.4a10.05,10.05,0,0,1-2.5.4,13.51,13.51,0,0,1-2.8-.4,5.17,5.17,0,0,1-3.7-4.2,29.54,29.54,0,0,1-.2-4.2v-12h-3.6V43h3.6V38.8l6-2V43h6v3.8h-6V62c0,.4.3,1.4.7,1.5,2.8,1.1,2.6-2.7,2.5-4.3h3.7Z" fill="#020202"/><path d="M192.6,52c-.1-2.8-1.3-5.6-4.5-5.6-4.8,0-5.4,5.4-5.4,9.1,0,3.5,1.2,8.1,5.5,8.1,2.6,0,4.1-2.3,4.3-4.7h5.2c-.3,5.9-4.4,8.6-10.1,8.6-7.8,0-11.3-5.8-11.3-12.9a14.29,14.29,0,0,1,2.8-8.9,8.5,8.5,0,0,1,7.2-3.4c2.9,0,5.4.6,6.7,3.4V43h4.6v9Z" fill="#020202"/><path d="M202.5,63.6a13.82,13.82,0,0,1-2.8-8.8,12.5,12.5,0,0,1,3.2-9,11.55,11.55,0,0,1,8.4-3.4c7.8,0,11.9,5.4,11.9,12.7,0,7-4.3,12.6-11.7,12.6A11.92,11.92,0,0,1,202.5,63.6ZM206,55a12,12,0,0,0,1.1,5.6,5,5,0,0,0,4.4,3,4.94,4.94,0,0,0,4.5-3.4,16,16,0,0,0,.9-5.3,11.55,11.55,0,0,0-1.1-5.5,4.82,4.82,0,0,0-4.4-3C207.1,46.4,206,51.6,206,55Z" fill="#020202"/><path d="M226.1,67.1V63.2h3.2V46.8h-3.2V43h9.2V63.2h2.8v3.9Zm9.3-33.3v5.5h-6V33.8Z" fill="#020202"/><path d="M249.6,46.9a7.29,7.29,0,0,1,7.2-4.5c3.7,0,6.5,2.3,7.1,4.5a9.26,9.26,0,0,1,.3,3.3V63.3h3v3.9H255.4V63.3h2.8V52.4a9.26,9.26,0,0,0-.3-3.3,3.3,3.3,0,0,0-3.2-2.5c-4.4,0-4.7,4.1-4.7,7.5v9.2h2.9v3.9H240.8V63.4H244V46.8h-3.2V43h8.8Z" fill="#020202"/><path d="M293,46.3c-.3-4.7-2.5-8.1-7.5-8.1-6.9,0-8.6,6.9-8.6,12.5,0,5.4,1.5,12.7,8.3,12.7a6.9,6.9,0,0,0,7.3-7.2h6.4c-.1,7.8-6.4,11.3-13.5,11.3-10.6,0-15.2-7.3-15.2-17.2,0-6.6,2.4-10.9,4.5-12.8,2.5-2.3,4.7-3.6,9.5-3.6,3.4,0,7.1.8,9.2,3.6v-3h5.1V46.2Z" fill="#0987bb" opacity="0.8" style="isolation:isolate"/><path d="M302.5,67.1V63.2h3.1V37.9h-3.1V34.1h9.1V63.3h2.9v3.9h-12Z" fill="#0987bb" opacity="0.8" style="isolation:isolate"/><path d="M323.6,56.3c0,3.4,1.4,7.4,5.5,7.4a4.53,4.53,0,0,0,4.5-3.9h5.8c-.4,5.3-5.7,7.9-10.6,7.9a14.5,14.5,0,0,1-5-1.1,9,9,0,0,1-3.7-3,14.17,14.17,0,0,1-2.6-8.7c0-6.6,3.8-12.4,11.1-12.4a11,11,0,0,1,8.4,3.2c2,2.1,2.5,5.5,2.7,8.2a7.39,7.39,0,0,1,0,2.1v.4Zm10-3.5c0-2.7-1.1-6.6-4.6-6.6-3.8,0-5,3.4-5.3,6.6Z" fill="#0987bb" opacity="0.8" style="isolation:isolate"/><path d="M357.9,63.2a7.86,7.86,0,0,1-7.5,4.4c-3.2,0-6.6-1.9-7.2-4.4a8.4,8.4,0,0,1-.5-3.1,7.25,7.25,0,0,1,2.3-5.4,10.93,10.93,0,0,1,5.5-2.1c1.1,0,2.4-.2,3.5-.2s2.2.1,3.3.2c.3-2.9-.1-6.5-3.9-6.5-2.6,0-3.9,1.8-3.9,4.3h-6c.1-5.9,4.5-8,9.8-8,3.8,0,7.3,1,8.9,4.7a8.65,8.65,0,0,1,.6,2.3c.1,1,.2,2.1.2,3.1V63.4h3.1v3.8h-8.3v-4Zm-3.3-7.3c-3.1,0-5.9.7-5.9,4.4a3.28,3.28,0,0,0,2.9,3.4h.3c4.4,0,5.4-4.2,5.6-7.8Z" fill="#0987bb" opacity="0.8" style="isolation:isolate"/><path d="M377.2,46.9a7.29,7.29,0,0,1,7.2-4.5c3.7,0,6.5,2.3,7.1,4.5a9.26,9.26,0,0,1,.3,3.3V63.3h3v3.9H383V63.3h2.8V52.4a9.26,9.26,0,0,0-.3-3.3,3.3,3.3,0,0,0-3.2-2.5c-4.4,0-4.7,4.1-4.7,7.5v9.2h2.9v3.9H368.4V63.4h3.2V46.8h-3.2V43h8.8v3.9Z" fill="#0987bb" opacity="0.8" style="isolation:isolate"/><polygon points="88.8 26.6 47.7 3.1 6.8 27 7.1 74.3 48.2 97.8 89.1 73.9 88.8 26.6" fill="url(#Unbenannter_Verlauf)"/><path d="M88.3,68.6a7.64,7.64,0,0,0-.9-.9,7.64,7.64,0,0,0-.9-.9,7.64,7.64,0,0,0-.9-.9,7.64,7.64,0,0,0-.9-.9c-.3-.3-.6-.7-.9-1a7.64,7.64,0,0,0-.9-.9,7.64,7.64,0,0,0-.9-.9,7.64,7.64,0,0,0-.9-.9,7.64,7.64,0,0,0-.9-.9,7.64,7.64,0,0,0-.9-.9,7.64,7.64,0,0,0-.9-.9,7.64,7.64,0,0,0-.9-.9c-.3-.3-.6-.7-.9-1s-.6-.7-.9-1-.6-.7-.9-1-.6-.7-.9-1-.6-.7-.9-1-.6-.7-.9-1-.6-.7-.9-1-.6-.7-.9-1-.6-.7-.9-1-.6-.7-.9-1-.6-.7-.9-1-.6-.7-.9-1-.6-.7-.9-1-.6-.7-.9-1l-.9-.9c-.3-.3-.6-.7-.9-1s-.6-.7-.9-1-.6-.7-.9-1-.6-.7-.9-1-.6-.7-.9-1-.6-.7-.9-1a10.71,10.71,0,0,0-8.4-3.6A11,11,0,0,0,39,43.9V55a10.92,10.92,0,0,0,3.7,8.3c.3.3.6.7.9,1a7.64,7.64,0,0,0,.9.9,7.64,7.64,0,0,0,.9.9,7.64,7.64,0,0,0,.9.9,7.64,7.64,0,0,0,.9.9,7.64,7.64,0,0,0,.9.9,7.64,7.64,0,0,0,.9.9,7.64,7.64,0,0,0,.9.9,7.64,7.64,0,0,0,.9.9,7.64,7.64,0,0,0,.9.9,7.64,7.64,0,0,0,.9.9,7.64,7.64,0,0,0,.9.9,7.64,7.64,0,0,0,.9.9,7.64,7.64,0,0,0,.9.9,7.64,7.64,0,0,0,.9.9,7.64,7.64,0,0,0,.9.9,7.64,7.64,0,0,0,.9.9,7.64,7.64,0,0,0,.9.9,7.64,7.64,0,0,0,.9.9,7.64,7.64,0,0,0,.9.9,7.64,7.64,0,0,0,.9.9,7.64,7.64,0,0,0,.9.9,7.64,7.64,0,0,0,.9.9,7.64,7.64,0,0,0,.9.9,7.64,7.64,0,0,0,.9.9c-.2,2.1-.2,2-.2,2l24-14V69.3C89,69.4,88.7,68.9,88.3,68.6Z" fill="#b2b2b2" style="mix-blend-mode:multiply"/><path d="M48.4,65a11.1,11.1,0,0,1-11.3-10.7V43.23A11.1,11.1,0,0,1,48,32.13h.3a10.51,10.51,0,0,1,10,5.9,1.55,1.55,0,0,1-.4,2l-1.6,1.2a1.27,1.27,0,0,1-1.8-.1l-.2-.2c-.6-1-2-4-5.9-4a6,6,0,0,0-6,6V54a6,6,0,0,0,5.8,6.2h.2c3.8,0,5.1-2.8,5.9-3.8s1.3-1,2-.6l1.6,1.1a1.47,1.47,0,0,1,.7,1.9.1.1,0,0,1-.1.1A10.56,10.56,0,0,1,48.4,65Z" fill="#fff"/></g></g></g></g></svg>
